<svg xmlns="http://www.w3.org/2000/svg" width="32" height="32" viewBox="0 0 32 32">
  <path fill="#666" fill-rule="evenodd" d="M1049,3108 C1057.83656,3108 1065,3115.16344 1065,3124 C1065,3132.83656 1057.83656,3140 1049,3140 C1040.16344,3140 1033,3132.83656 1033,3124 C1033,3115.16344 1040.16344,3108 1049,3108 Z M1053.59329,3120.68868 C1051.28942,3120.68868 1049.41526,3122.62338 1049.41526,3125.00123 C1049.41526,3127.37926 1051.2896,3129.31372 1053.59329,3129.31372 C1054.99108,3129.31372 1056.29003,3128.59723 1057.06794,3127.39692 C1057.1648,3127.24714 1057.25298,3127.09077 1057.33114,3126.9296 C1057.38782,3126.81262 1057.30172,3126.67637 1057.17169,3126.67625 L1057.17169,3126.67625 L1055.11797,3126.67108 L1055.07368,3126.67704 C1055.04503,3126.68485 1055.01858,3126.7001 1054.99692,3126.72123 C1054.60905,3127.09828 1054.13372,3127.27662 1053.59342,3127.27662 C1052.57268,3127.27662 1051.71717,3126.51323 1051.50412,3125.49563 L1051.50412,3125.49563 L1057.36252,3125.49563 L1057.44489,3125.48732 C1057.63114,3125.44919 1057.77126,3125.28432 1057.77126,3125.08665 L1057.77126,3125.08665 L1057.77126,3125.00117 L1057.76614,3124.78633 C1057.65728,3122.50791 1055.82724,3120.68868 1053.59329,3120.68868 Z M1044.77415,3118.19397 L1040.13034,3118.19397 L1040.05098,3118.20197 C1039.87154,3118.23869 1039.73655,3118.39746 1039.73655,3118.58775 L1039.73655,3118.58775 L1039.73655,3128.80018 L1039.74455,3128.87954 C1039.78127,3129.05898 1039.94005,3129.19397 1040.13034,3129.19397 L1040.13034,3129.19397 L1045.31778,3129.19397 L1045.50916,3129.18887 C1047.34758,3129.09066 1048.83822,3127.58653 1048.84563,3125.72548 C1048.85058,3124.5456 1048.26523,3123.49957 1047.36898,3122.86566 C1047.68111,3122.37969 1047.85945,3121.80012 1047.84905,3121.17858 C1047.8216,3119.51545 1046.43748,3118.19397 1044.77415,3118.19397 L1044.77415,3118.19397 Z M1045.36289,3124.26542 C1046.16,3124.26542 1046.80855,3124.91415 1046.80855,3125.71108 C1046.80843,3126.50818 1046.16006,3127.15668 1045.36289,3127.15668 L1045.36289,3127.15668 L1041.77378,3127.15668 L1041.77378,3124.26542 Z M1053.59329,3122.72597 C1054.34068,3122.72597 1054.99957,3123.13575 1055.38252,3123.75458 L1055.38252,3123.75458 L1051.80382,3123.75458 L1051.89703,3123.61559 C1052.28878,3123.07519 1052.90323,3122.72597 1053.59329,3122.72597 Z M1044.81391,3120.23126 C1045.36437,3120.23126 1045.81237,3120.67914 1045.81237,3121.22972 C1045.81237,3121.78018 1045.36437,3122.22812 1044.81391,3122.22812 L1044.81391,3122.22812 L1041.77378,3122.22812 L1041.77378,3120.23126 Z M1055.32942,3118.62702 L1051.62369,3118.62702 C1051.45089,3118.62702 1051.31065,3118.76726 1051.31065,3118.94006 L1051.31065,3118.94006 L1051.31065,3119.8696 C1051.31065,3120.0424 1051.45089,3120.18265 1051.62369,3120.18265 L1051.62369,3120.18265 L1055.32942,3120.18265 C1055.50222,3120.18265 1055.64234,3120.04265 1055.64228,3119.8696 L1055.64228,3119.8696 L1055.64228,3118.94006 C1055.64228,3118.76726 1055.50222,3118.62702 1055.32942,3118.62702 L1055.32942,3118.62702 Z" transform="translate(-1033 -3108)"/>
</svg>
