<svg xmlns="http://www.w3.org/2000/svg" width="32" height="32" viewBox="0 0 32 32">
  <path fill="#666" fill-rule="evenodd" d="M1105,3108 C1113.83656,3108 1121,3115.16344 1121,3124 C1121,3132.83656 1113.83656,3140 1105,3140 C1096.16344,3140 1089,3132.83656 1089,3124 C1089,3115.16344 1096.16344,3108 1105,3108 Z M1104.75366,3114.74794 C1099.7816,3114.74794 1095.73649,3118.78825 1095.73649,3123.75397 C1095.73649,3128.71969 1099.7816,3132.75963 1104.75366,3132.75963 C1109.72591,3132.75963 1113.7712,3128.71988 1113.7712,3123.75397 C1113.7712,3118.78825 1109.72591,3114.74794 1104.75366,3114.74794 Z M1106.0856,3125.06357 C1107.13194,3127.78757 1107.57508,3130.07385 1107.69662,3130.7824 C1106.79102,3131.16314 1105.79655,3131.37342 1104.75366,3131.37342 C1103.0064,3131.37342 1101.39391,3130.78166 1100.1072,3129.78942 C1100.32486,3129.36271 1101.90449,3126.51865 1106.07723,3125.06634 C1106.07975,3125.06529 1106.08252,3125.06431 1106.0856,3125.06357 Z M1109.14172,3124.57495 C1110.73397,3124.57495 1111.97957,3124.92357 1112.26892,3125.012 C1111.92486,3127.0872 1110.7368,3128.88302 1109.06862,3130.03237 C1108.96646,3129.44615 1108.556,3127.30351 1107.60855,3124.69028 C1108.13994,3124.60763 1108.65692,3124.57495 1109.14172,3124.57495 Z M1104.94738,3122.49698 C1105.15268,3122.8984 1105.34806,3123.30591 1105.52978,3123.71317 C1105.44437,3123.73766 1105.36012,3123.76215 1105.27643,3123.78954 C1101.4688,3125.01926 1099.37588,3128.27495 1099.05385,3128.80714 C1097.86068,3127.46265 1097.13545,3125.69766 1097.13545,3123.76585 C1097.13545,3123.70314 1097.13649,3123.64043 1097.13852,3123.57809 L1097.33852,3123.57865 C1098.28394,3123.57865 1101.56566,3123.50055 1104.94738,3122.49698 Z M1110.68726,3118.99865 C1111.71588,3120.27348 1112.34092,3121.88345 1112.36978,3123.63778 C1112.02757,3123.56757 1110.57809,3123.29723 1108.84591,3123.29723 C1108.28702,3123.29723 1107.69877,3123.32523 1107.10905,3123.39809 C1107.05926,3123.27705 1107.00942,3123.15643 1106.95711,3123.03465 C1106.80412,3122.67489 1106.63938,3122.31803 1106.46868,3121.96634 C1109.13458,3120.868 1110.42055,3119.34363 1110.68726,3118.99865 Z M1101.48129,3116.89588 C1101.74394,3117.25766 1103.04831,3119.07797 1104.26874,3121.23545 C1101.09907,3122.06866 1098.27289,3122.1481 1097.45765,3122.15235 L1097.30831,3122.15255 C1097.81262,3119.82843 1099.38289,3117.89723 1101.48129,3116.89588 Z M1104.75366,3116.15772 C1106.67508,3116.15772 1108.43145,3116.87157 1109.77292,3118.04732 C1109.56055,3118.33705 1108.40886,3119.77662 1105.83828,3120.74788 C1104.64843,3118.57286 1103.34609,3116.77188 1103.03612,3116.35366 C1103.58849,3116.22572 1104.16338,3116.15772 1104.75366,3116.15772 Z" transform="translate(-1089 -3108)"/>
</svg>
