<svg xmlns="http://www.w3.org/2000/svg" width="32" height="32" viewBox="0 0 32 32">
  <path fill="#666" fill-rule="evenodd" d="M1273,3108 C1281.83656,3108 1289,3115.16344 1289,3124 C1289,3132.83656 1281.83656,3140 1273,3140 C1264.16344,3140 1257,3132.83656 1257,3124 C1257,3115.16344 1264.16344,3108 1273,3108 Z M1279.34111,3114.73637 L1266.16665,3114.73637 C1264.82455,3114.73637 1263.73649,3115.82437 1263.73649,3117.16652 L1263.73649,3130.34098 C1263.73649,3131.6832 1264.82449,3132.77114 1266.16665,3132.77114 L1272.66412,3132.77114 L1272.67538,3126.32671 L1271.00092,3126.32671 C1270.78332,3126.32671 1270.60671,3126.15071 1270.60597,3125.93311 L1270.59778,3123.85563 C1270.59692,3123.63698 1270.77422,3123.45908 1270.99286,3123.45908 L1272.66437,3123.45908 L1272.66437,3121.45182 C1272.66437,3119.12246 1274.08702,3117.85409 1276.16492,3117.85409 L1277.87015,3117.85409 C1278.08818,3117.85409 1278.26523,3118.03095 1278.26523,3118.24917 L1278.26523,3120.00074 C1278.26523,3120.21895 1278.08837,3120.39582 1277.8704,3120.39582 L1276.82388,3120.39643 C1275.69385,3120.39643 1275.47489,3120.93335 1275.47489,3121.72154 L1275.47489,3123.45932 L1277.95803,3123.45932 C1278.19483,3123.45932 1278.37834,3123.66597 1278.35034,3123.90074 L1278.10412,3125.97822 C1278.08068,3126.17711 1277.912,3126.32683 1277.71182,3126.32683 L1275.48609,3126.32683 L1275.47483,3132.77151 L1279.34105,3132.77151 C1280.68314,3132.77151 1281.7712,3131.68338 1281.7712,3130.34129 L1281.7712,3117.16652 C1281.7712,3115.82443 1280.6832,3114.73637 1279.34111,3114.73637 Z" transform="translate(-1257 -3108)"/>
</svg>
