<svg xmlns="http://www.w3.org/2000/svg" width="32" height="32" viewBox="0 0 32 32">
  <path fill="#666" fill-rule="evenodd" d="M1161,3108 C1169.83656,3108 1177,3115.16344 1177,3124 C1177,3132.83656 1169.83656,3140 1161,3140 C1152.16344,3140 1145,3132.83656 1145,3124 C1145,3115.16344 1152.16344,3108 1161,3108 Z M1168.13988,3114.73649 L1153.36794,3114.73649 C1152.46683,3114.73649 1151.73655,3115.46677 1151.73655,3116.36788 L1151.73655,3131.13969 C1151.73655,3132.04055 1152.46683,3132.77108 1153.36794,3132.77108 L1168.13975,3132.77108 C1169.04062,3132.77108 1169.77114,3132.04055 1169.77114,3131.13969 L1169.77114,3116.36788 C1169.77114,3115.46677 1169.04074,3114.73649 1168.13988,3114.73649 Z M1156.84252,3121.36246 C1157.10486,3121.36246 1157.31735,3121.57508 1157.31735,3121.83729 L1157.31735,3130.30874 C1157.31723,3130.57108 1157.10474,3130.78357 1156.8424,3130.78357 L1154.82166,3130.78357 C1154.55932,3130.78357 1154.34683,3130.57095 1154.34683,3130.30874 L1154.34683,3121.83729 C1154.34683,3121.57495 1154.55945,3121.36246 1154.82166,3121.36246 L1156.84252,3121.36246 Z M1164.42591,3121.22012 C1167.74038,3121.22012 1167.8731,3124.17603 1167.87832,3125.99524 L1167.87852,3130.34708 C1167.87834,3130.58812 1167.68295,3130.78369 1167.44203,3130.78369 L1165.27329,3130.78369 C1165.03237,3130.78369 1164.83686,3130.58818 1164.83686,3130.34702 L1164.83686,3126.37323 C1164.83686,3125.78062 1165.01077,3123.77569 1163.28782,3123.77569 C1161.95126,3123.77569 1161.68018,3125.148 1161.62578,3125.76363 L1161.62578,3130.34689 C1161.62578,3130.588 1161.4304,3130.78357 1161.18923,3130.78357 L1159.09188,3130.78357 C1158.85077,3130.78357 1158.6552,3130.58806 1158.6552,3130.34689 L1158.6552,3121.79902 C1158.6552,3121.55791 1158.85071,3121.36234 1159.09188,3121.36234 L1161.18923,3121.36234 C1161.43034,3121.36234 1161.62578,3121.55785 1161.62578,3121.79902 L1161.62578,3122.53803 C1162.12142,3121.79434 1162.85797,3121.22012 1164.42591,3121.22012 Z M1155.832,3116.724 C1156.89243,3116.724 1157.75188,3117.58363 1157.75188,3118.64375 C1157.75188,3119.70431 1156.89237,3120.56382 1155.832,3120.56382 C1154.77169,3120.56382 1153.91225,3119.70418 1153.91225,3118.64375 C1153.91225,3117.58351 1154.77163,3116.724 1155.832,3116.724 Z" transform="translate(-1145 -3108)"/>
</svg>
