<svg xmlns="http://www.w3.org/2000/svg" width="32" height="32" viewBox="0 0 32 32">
  <path fill="#666" fill-rule="evenodd" d="M1217,3108 C1225.83656,3108 1233,3115.16344 1233,3124 C1233,3132.83656 1225.83656,3140 1217,3140 C1208.16344,3140 1201,3132.83656 1201,3124 C1201,3115.16344 1208.16344,3108 1217,3108 Z M1220.30514,3117 C1219.89455,3117 1219.48021,3117.064 1219.07338,3117.19022 C1217.81264,3117.58117 1216.83984,3118.62123 1216.53449,3119.90425 C1216.42003,3120.38535 1216.38914,3120.8672 1216.44243,3121.33588 C1216.4484,3121.38978 1216.42311,3121.42732 1216.40741,3121.44492 C1216.37972,3121.47582 1216.34071,3121.4936 1216.30003,3121.4936 C1216.2956,3121.4936 1216.2908,3121.49342 1216.28624,3121.49298 C1213.52649,3121.23649 1211.03781,3119.90702 1209.27892,3117.74917 C1209.18938,3117.63908 1209.0172,3117.65262 1208.94569,3117.77514 C1208.60132,3118.36628 1208.41929,3119.04215 1208.41929,3119.72997 C1208.41929,3120.78394 1208.84292,3121.77735 1209.57849,3122.5016 C1209.26914,3122.42818 1208.96969,3122.31268 1208.69147,3122.15809 C1208.55683,3122.08338 1208.39135,3122.17963 1208.38944,3122.33354 C1208.37037,3123.89938 1209.28717,3125.29274 1210.66052,3125.92012 L1210.57744,3125.92098 L1210.57744,3125.92098 C1210.35978,3125.92098 1210.13923,3125.90018 1209.92237,3125.85852 C1209.7708,3125.82978 1209.64347,3125.97342 1209.69049,3126.12025 C1210.1364,3127.51212 1211.33461,3128.53797 1212.76871,3128.77071 C1211.57861,3129.56966 1210.19252,3129.99102 1208.75012,3129.99102 L1208.30052,3129.99083 C1208.16175,3129.99083 1208.04452,3130.08123 1208.00944,3130.21545 C1207.97467,3130.34745 1208.03861,3130.48702 1208.15689,3130.55575 C1209.78224,3131.50172 1211.63634,3132.0016 1213.51923,3132.0016 C1215.16747,3132.0016 1216.70926,3131.67465 1218.10175,3131.02942 C1219.37837,3130.43809 1220.50643,3129.5928 1221.45474,3128.51698 C1222.33824,3127.51477 1223.02895,3126.35791 1223.50797,3125.07828 C1223.96446,3123.85883 1224.20581,3122.55723 1224.20581,3121.31495 L1224.20581,3121.25563 C1224.20581,3121.05618 1224.29597,3120.86849 1224.45344,3120.74055 C1225.05074,3120.25551 1225.57098,3119.68468 1225.99941,3119.04382 C1226.11264,3118.87471 1225.93418,3118.66252 1225.74809,3118.74505 C1225.34729,3118.92283 1224.93141,3119.06302 1224.50452,3119.16443 C1224.97492,3118.7176 1225.32852,3118.15852 1225.52797,3117.53465 C1225.58495,3117.35662 1225.39141,3117.20246 1225.23061,3117.29785 C1224.63677,3117.65015 1223.99714,3117.91422 1223.32944,3118.0832 C1223.2908,3118.09305 1223.25092,3118.09797 1223.21074,3118.09797 C1223.08895,3118.09797 1222.97098,3118.05286 1222.87775,3117.97089 C1222.16747,3117.3448 1221.25375,3117 1220.30514,3117 Z" transform="translate(-1201 -3108)"/>
</svg>
